<svg xmlns:xlink="http://www.w3.org/1999/xlink" xmlns="http://www.w3.org/2000/svg" width="180" height="24" viewBox="0 0 180 24" fill="none" class="w-full h-auto max-w-full"><g fill="#000"><path d="M7.38 20.55H4.87c-1 0-1.23-.18-1.23-1.15V5.9c0-1 .2-1.15 1.23-1.15h2.51V2.22H3.63C1 2.22 0 3.17 0 5.63v14c0 2.46 1 3.41 3.63 3.41h3.75v-2.49ZM77.28 15.59a2.58 2.58 0 0 1-.5 1.78 1.49 1.49 0 0 1-1.1.34 1.54 1.54 0 0 1-1.1-.33 2.62 2.62 0 0 1-.5-1.79v-5.13a2.55 2.55 0 0 1 .5-1.77 2 2 0 0 1 2.19 0 2.54 2.54 0 0 1 .51 1.78v5.12Zm-1.6-9.9a5.17 5.17 0 0 0-3.88 1.42 4.65 4.65 0 0 0-1.19 3.35v5.13A4.66 4.66 0 0 0 71.8 19a6 6 0 0 0 7.75 0 4.62 4.62 0 0 0 1.2-3.36v-5.18a4.65 4.65 0 0 0-1.19-3.35 5.17 5.17 0 0 0-3.88-1.42ZM62.87.85a4.12 4.12 0 0 0-2.09 3.88v1h-1.7v2.62h1.7v12h3.45v-12h3.67V5.69h-3.67v-1a1.79 1.79 0 0 1 .61-1.52 3.59 3.59 0 0 1 2.5-.41l.84.12.48-2.69-.87-.08a8.46 8.46 0 0 0-4.92.74ZM53.63 5.7a3.51 3.51 0 0 0-2.49.16 3.65 3.65 0 0 0-1.54 1.27 3.5 3.5 0 0 0-2.53-1.54 3.41 3.41 0 0 0-2.83.83L44 5.69h-3v14.67h3.46v-10a3.06 3.06 0 0 1 .37-1.77c0-.07.21-.3.91-.3.7 0 .85.23.9.31a3.07 3.07 0 0 1 .36 1.79v9.94h3.47v-9.91a3.14 3.14 0 0 1 .36-1.8c0-.07.21-.3.92-.3.71 0 .86.23.91.3.283.555.4 1.18.34 1.8v9.94h3.47v-9.94a5.71 5.71 0 0 0-.83-3.15 3.72 3.72 0 0 0-2.01-1.57ZM30.75 10.46a2.5 2.5 0 0 1 .51-1.77 1.46 1.46 0 0 1 1.1-.34 1.5 1.5 0 0 1 1.09.33 2.54 2.54 0 0 1 .55 1.78v5.13a2.52 2.52 0 0 1-.51 1.78 1.45 1.45 0 0 1-1.09.34 1.51 1.51 0 0 1-1.1-.33 2.57 2.57 0 0 1-.51-1.79l-.04-5.13Zm1.61-4.77a5.15 5.15 0 0 0-3.88 1.42 4.65 4.65 0 0 0-1.19 3.35v5.13A4.66 4.66 0 0 0 28.48 19a5.15 5.15 0 0 0 3.88 1.41A5.14 5.14 0 0 0 36.23 19a4.66 4.66 0 0 0 1.19-3.36v-5.18a4.65 4.65 0 0 0-1.19-3.35 5.14 5.14 0 0 0-3.87-1.42ZM18.58 5.69a5.14 5.14 0 0 0-3.87 1.42 4.65 4.65 0 0 0-1.19 3.35v5.13A4.66 4.66 0 0 0 14.71 19a5.14 5.14 0 0 0 3.87 1.41A5.15 5.15 0 0 0 22.46 19a4.66 4.66 0 0 0 1.19-3.36v-.36h-3.46v.36a2.52 2.52 0 0 1-.51 1.78 1.46 1.46 0 0 1-1.1.34 1.5 1.5 0 0 1-1.09-.33 2.57 2.57 0 0 1-.49-1.84v-5.13a2.55 2.55 0 0 1 .5-1.77 1.49 1.49 0 0 1 1.1-.34c.395-.04.79.08 1.1.33a2.54 2.54 0 0 1 .51 1.78v1.33h3.46v-1.33a4.65 4.65 0 0 0-1.19-3.35 5.15 5.15 0 0 0-3.88-1.42M150 5.88a4.23 4.23 0 0 0-2.44-.18 4.149 4.149 0 0 0-1.72.85l-.23-.86h-3v14.67H146v-10c-.059-.62.12-1.238.5-1.73a2 2 0 0 1 2.2 0c.389.504.571 1.137.51 1.77v9.94h3.46v-9.92c0-2.3-.92-3.83-2.76-4.54M159.81 10.47a2.513 2.513 0 0 1 .51-1.77 1.93 1.93 0 0 1 2.19 0c.388.504.571 1.137.51 1.77v.8h-3.21v-.8Zm6.68 3.46v-3.46a4.627 4.627 0 0 0-1.2-3.34 6 6 0 0 0-7.75 0 4.632 4.632 0 0 0-1.19 3.34v5.13a4.662 4.662 0 0 0 1.19 3.4 6 6 0 0 0 7.75 0 3.529 3.529 0 0 0 1.2-2.88v-.82H163v.82a1.47 1.47 0 0 1-1.6 1.64c-1.33 0-1.61-1.28-1.61-2.12v-1.71h6.7ZM135.48 15.59a2.567 2.567 0 0 1-.51 1.78 1.46 1.46 0 0 1-1.1.34 1.501 1.501 0 0 1-1.09-.33 2.576 2.576 0 0 1-.51-1.79v-5.13a2.552 2.552 0 0 1 .5-1.77 2 2 0 0 1 2.2 0c.384.51.565 1.144.51 1.78v5.12Zm-1.61-9.9A5.142 5.142 0 0 0 130 7.11a4.613 4.613 0 0 0-1.2 3.35v5.13A4.663 4.663 0 0 0 130 19a6 6 0 0 0 7.76 0 4.654 4.654 0 0 0 1.19-3.36v-5.18a4.648 4.648 0 0 0-1.19-3.35 5.168 5.168 0 0 0-3.88-1.42M91.76 5.88a4.26 4.26 0 0 0-2.45-.18 4.11 4.11 0 0 0-1.71.85l-.23-.86h-3v14.67h3.47v-10a2.49 2.49 0 0 1 .5-1.74 1.54 1.54 0 0 1 1.1-.33 1.5 1.5 0 0 1 1.09.33 2.51 2.51 0 0 1 .51 1.77v1.37h3.47v-1.34c0-2.3-.93-3.83-2.76-4.54M103.03 0h-3.28v5.69h-2.98v2.66h2.8v12.01h3.46V8.35h2.81V5.69h-2.81V0ZM125.89 5.69h-10.12v2.66h5.92l-5.96 10.48-.03 1.53h10.19v-2.65h-5.9l5.87-10.29.03-1.73ZM172.62 20.55h2.51c1 0 1.23-.18 1.23-1.15V5.9c0-1-.2-1.15-1.23-1.15h-2.51V2.22h3.75c2.61 0 3.63.95 3.63 3.41v14c0 2.46-1 3.41-3.63 3.41h-3.75v-2.49Z"></path><path d="M172.62 20.55h2.51c1 0 1.23-.18 1.23-1.15V5.9c0-1-.2-1.15-1.23-1.15h-2.51V2.22h3.75c2.61 0 3.63.95 3.63 3.41v14c0 2.46-1 3.41-3.63 3.41h-3.75v-2.49Z"></path></g></svg>