<svg width="3183" height="433" viewBox="0 0 3183 433" fill="none" xmlns="http://www.w3.org/2000/svg">
<path d="M3002.86 0.835205C3003.05 0.811205 3003.24 0.787183 3003.44 0.763183C3053.74 -1.99982 3098.48 4.46917 3138.03 37.0762L3128.57 37.0442C3083.92 2.43319 2998.72 -4.34084 2957.47 39.0062C2944.74 52.3872 2936.93 70.7802 2937.96 89.4172C2940.32 133.734 2987.11 154.594 3022.6 169.536C3065.3 187.519 3112.92 200.906 3148.55 231.984C3170.31 250.968 3180.77 274.38 3182.18 303.059C3183.77 332.701 3173.28 361.722 3153.11 383.502C3119.54 419.817 3070.82 430.649 3023.46 432.365C2979.83 432.223 2938.31 424.682 2901.52 399.693C2898.41 397.574 2889.7 391.919 2889.03 388.398C2902.06 386.934 2904.49 395.615 2915.9 401.939C2964.99 429.152 3054.03 435.031 3092.23 387.972C3102.63 375.196 3107.51 358.802 3105.81 342.415C3100.27 291.192 3025.22 269.331 2985.37 251.832C2933.11 228.877 2872.15 201.436 2866.64 135.722C2859.6 51.6672 2927.72 7.5282 3002.86 0.835205Z" fill="white"/>
<path d="M621.672 5.52515L664.961 5.55011C680.038 19.6081 697.213 37.9511 711.9 52.8391L802.548 144.738L912.211 255.928C933.026 277.014 955.64 299.076 975.695 320.632C976.435 354.997 975.736 391.808 975.676 426.322L955.6 426.38C944.543 416.203 931.446 402.303 920.679 391.479L853.285 323.7L621.722 90.3421L621.672 5.52515Z" fill="white"/>
<path d="M0.281784 5.51611L92.5803 5.55011L92.6202 181.37C92.6072 225.293 89.2311 274.45 98.3669 317.082C122.072 427.694 279.933 444.148 334.623 349.84C334.568 355.215 335.348 367.099 333.156 370.961C270.745 456.405 115.433 448.391 45.2698 376.302C25.8396 356.249 12.0879 331.388 5.42656 304.268C-0.756935 279.009 0.123827 253.158 0.148821 227.347L0.177836 161.583C-0.0900982 109.561 -0.0551334 57.5381 0.281784 5.51611Z" fill="white"/>
<path d="M1788.78 0.825155C1806.38 -1.21685 1833.28 0.86415 1850.96 3.44515C1873.13 6.67915 1924.42 24.9852 1937.3 43.4312C1936.03 44.4732 1929.42 44.5601 1928.29 43.6121C1877.66 0.949142 1793.02 3.35512 1742.21 45.4411C1699.99 81.1961 1684.04 134.665 1679.28 187.823C1670.45 286.604 1705.77 407.133 1822.39 416.037C1866.64 419.416 1907 410.219 1941.83 380.721C1955.01 368.898 1961.42 359.624 1970.83 345.211C1974.06 346.878 1974.95 347.137 1977.45 349.66C1975.68 356.084 1971.81 360.611 1967.68 365.684C1935.13 405.592 1886 426.411 1835.46 431.147C1771.52 437.137 1708.26 420.593 1658.43 379.019C1615.56 343.123 1588.82 291.568 1584.16 235.836C1579.01 178.941 1596.62 122.325 1633.13 78.3982C1672.85 31.0152 1727.94 6.25815 1788.78 0.825155Z" fill="white"/>
<path d="M1244.75 5.5802L1337.09 5.56519L1337.11 426.373L1244.7 426.45L1244.75 5.5802Z" fill="white"/>
<path d="M2424.25 0.0561523C2453.97 0.843152 2483.27 7.30611 2510.56 19.0971C2562.94 41.3091 2604.16 83.7001 2624.9 136.69C2645.44 190.726 2644.23 250.625 2621.52 303.787C2598.66 355.511 2556.07 395.948 2503.24 416.104C2491.27 421.21 2433.3 438.135 2424.25 429.834L2424.32 427.967C2427.66 423.818 2438.34 422.863 2443.97 421.231C2498.69 404.933 2527.41 343.766 2537.48 291.382C2555.58 197.281 2545.22 28.7021 2425.79 6.41211C2424.79 6.22511 2424.41 1.14415 2424.25 0.0561523Z" fill="white"/>
<path d="M2391.05 0.81823C2394.96 0.38123 2400.07 -0.501737 2403.44 1.07726C2404.63 3.97526 2404.4 2.45523 2403.77 5.83123C2399.53 8.54223 2381.8 11.2212 2371.49 16.0752C2337.79 31.9342 2314.69 66.6133 2302.5 101.082C2276.94 173.394 2277.63 278.648 2309.71 348.718C2323.69 379.231 2347.85 408.344 2379.76 419.751C2388.45 422.856 2395.25 422.67 2403.38 425.631C2404.71 428.217 2404.46 428.641 2404.04 431.47C2394.59 435.961 2346.15 423.159 2334.37 419.49C2308.58 409.819 2289 399.775 2267.31 382.267C2224.25 347.386 2196.82 296.824 2191.03 241.706C2177.73 114.009 2264.64 13.4692 2391.05 0.81823Z" fill="white"/>
<path d="M2415.89 118.619C2417.76 119.615 2418.88 119.674 2419.29 122.1C2424.92 155.057 2428.82 196.591 2464.28 211.35C2474.75 215.71 2485.16 217.075 2495.85 220.812C2479.54 226.831 2469.55 225.84 2452.93 237.894C2426.83 256.844 2423.87 292.351 2419.09 322.187L2416.63 322.216C2414.41 319.254 2413.71 304.78 2413.11 300.23C2409.21 270.309 2396.89 239.143 2366.14 228.354C2359.99 226.195 2351.09 225.033 2345.59 222.207L2345.04 220.188L2346.19 218.584C2404.93 208.405 2410.24 169.912 2415.89 118.619Z" fill="white"/>
<path d="M353.602 5.50107C356.637 5.45107 357.982 5.49311 360.994 5.83511C363.535 9.68411 362.536 49.9671 362.533 57.2691L362.489 147.99C362.484 192.541 362.946 237.696 362.126 282.225C361.892 294.949 358.407 311.826 355.887 324.162C355.541 326.281 355.743 326.357 354.273 327.845C353.098 322.693 353.532 304.721 353.53 298.685L353.524 241.402L353.602 5.50107Z" fill="white"/>
<path d="M621.682 116.011C623.801 117.408 628.53 121.95 630.649 123.887V426.455C627.5 426.593 625.671 426.969 622.801 425.884C619.942 420.991 621.632 148.48 621.682 116.011Z" fill="white"/>
<path d="M967.417 5.48414C970.167 5.37714 972.196 5.01614 974.715 6.08314C976.635 10.2601 976.015 269.941 975.445 295.91L967.367 287.266L967.417 5.48414Z" fill="white"/>
</svg>
