<svg xmlns:xlink="http://www.w3.org/1999/xlink" xmlns="http://www.w3.org/2000/svg" width="141" height="45" viewBox="0 0 141 45" fill="none">
<g clip-path="url(#clip0)">
<path fill-rule="evenodd" clip-rule="evenodd" d="M10.4653 27.5169C7.68899 25.5705 5.79602 22.5958 5.20283 19.2473C4.60964 15.8987 5.36482 12.4505 7.30224 9.66132C9.23966 6.87212 12.2006 4.97037 15.5337 4.37443C18.8669 3.77849 22.2991 4.53717 25.0754 6.48358L27.7575 2.60094C25.1879 0.889737 22.1717 -0.019138 19.0888 -0.0111786C10.5219 -0.0111786 3.57898 6.84456 3.57898 15.3034C3.58224 17.7894 4.19178 20.2367 5.35428 22.4312C6.51678 24.6258 8.19683 26.5008 10.2475 27.8921C10.5813 28.1252 11.2264 28.4947 11.3367 28.3838C11.4471 28.273 10.8048 27.7614 10.4653 27.5311V27.5169ZM22.9903 22.9265V18.2708H35.4502C34.9551 27.4118 27.2115 34.6739 17.7392 34.6739C7.98973 34.6739 0.0792183 26.9882 0 17.4778V17.3356C0 17.1452 0.0848766 16.7359 0.25463 16.7359C0.424383 16.7359 0.424383 17.2134 0.424383 17.4095C0.772378 26.4027 8.94318 33.1931 17.329 33.1931C23.8871 33.1931 28.6713 29.0376 30.5556 22.9265H22.9903ZM27.9246 38.6223C28.1855 38.7327 28.4178 38.9018 28.6035 39.1165L29.4211 38.5452C28.8043 37.9455 28.0263 37.7266 27.1068 37.7266C25.6441 37.7266 24.2776 38.386 24.2776 39.7163C24.2776 40.8703 25.1688 41.2994 26.3372 41.6206L26.5615 41.6843C27.8838 42.0586 28.5016 42.2335 28.5016 43.0418C28.5016 43.832 27.551 44.2384 26.7022 44.2384C25.9864 44.2384 25.2819 43.9798 24.9368 43.4682L24.088 44.0366C24.6539 44.716 25.678 45.0002 26.6343 45.0002C28.1366 45.0002 29.5512 44.3237 29.5512 42.9679C29.5512 41.6121 28.3913 41.2653 27.07 40.9157C25.7488 40.5661 25.3244 40.2819 25.3244 39.6424C25.3244 38.8238 26.2297 38.4798 27.0983 38.4798C27.381 38.4632 27.6636 38.512 27.9246 38.6223ZM8.83658 37.8972H7.85394V44.8211H8.83658V37.8972ZM13.2351 37.8972H14.4715L19.2727 43.6444H19.2925V37.8972H20.277V44.8211H19.035L14.2395 39.0625H14.2168V44.8211H13.2351V37.8972ZM39.0716 38.6589H36.3301V44.8211H35.3483V38.6589H32.6125V37.9H39.0716V38.6589ZM42.5713 37.8972H43.5483V44.8211H42.5713V37.8972ZM53.5006 38.6589H50.7619V44.8211H49.7858V38.6589H47.0443V37.9H53.5006V38.6589ZM60.0984 44.9916C62.3617 44.9916 63.2105 43.6756 63.2105 42.172L63.2303 37.9085H62.2457V42.0725C62.2457 43.1839 61.7648 44.2413 60.1097 44.2413C58.4546 44.2413 57.9708 43.1839 57.9708 42.0725V37.9085H56.9862V42.172C56.9862 43.6756 57.835 44.9916 60.0984 44.9916ZM73.1269 38.6589H70.3882V44.8211H69.4065V38.6589H66.6735V37.9H73.1269V38.6589ZM84.5784 39.9231C84.2949 39.7327 83.9616 39.631 83.6205 39.631C83.3946 39.6306 83.1709 39.6749 82.962 39.7614C82.7532 39.8479 82.5634 39.9749 82.4034 40.1351C82.2434 40.2953 82.1163 40.4856 82.0296 40.6952C81.9428 40.9047 81.8979 41.1293 81.8975 41.3563C81.8964 41.6989 81.9965 42.0341 82.1852 42.3195C82.3738 42.6049 82.6425 42.8277 82.9572 42.9596C83.272 43.0915 83.6186 43.1265 83.9532 43.0604C84.2878 42.9943 84.5953 42.8298 84.8369 42.588C85.0784 42.3461 85.2431 42.0377 85.31 41.7018C85.3769 41.3658 85.3431 41.0175 85.2129 40.7009C85.0827 40.3842 84.8618 40.1136 84.5784 39.9231ZM95.6052 40.9413H97.2659C98.2505 40.9413 98.9295 40.5718 98.9295 39.8044C98.9295 39.0369 98.2505 38.6674 97.2659 38.6674H95.6052V40.9413ZM94.6319 37.9085H97.0905C98.607 37.9085 99.9876 38.3576 99.9876 39.8044C99.9876 41.3222 98.4457 41.7172 97.2744 41.7172H95.6052V44.8438H94.6234L94.6319 37.9085ZM106.155 38.9516H106.175L107.808 42.3625H104.435L106.155 38.9516ZM106.653 37.9085H105.731L102.078 44.8325H103.196L104.045 43.1271H108.178L109.027 44.8325H110.178L106.653 37.9085ZM114.592 40.9413H115.475C116.561 40.9413 117.976 40.9413 117.976 39.8044C117.976 38.8067 116.932 38.6674 115.976 38.6674H114.592V40.9413ZM113.616 37.9085H115.729C117.331 37.9085 119.034 38.1046 119.034 39.8157C119.034 40.8162 118.25 41.4757 116.96 41.6377L119.308 44.8325H118.1L115.857 41.7059H114.592V44.8325H113.616V37.9085ZM123.094 37.8972H124.082V44.8211H123.094V37.8972ZM132.41 39.1165C132.223 38.9016 131.989 38.7325 131.727 38.6222C131.465 38.5119 131.181 38.4632 130.897 38.4798C130.028 38.4798 129.129 38.8238 129.129 39.6424C129.129 40.2819 129.556 40.5661 130.871 40.9157C132.187 41.2653 133.353 41.6121 133.353 42.9679C133.353 44.3237 131.938 45.0002 130.441 45.0002C129.479 45.0002 128.447 44.716 127.895 44.0366L128.744 43.4682C129.097 43.9798 129.796 44.2384 130.506 44.2384C131.355 44.2384 132.314 43.832 132.314 43.0418C132.314 42.2352 131.694 42.0593 130.379 41.6866L130.147 41.6206C128.976 41.2994 128.099 40.8703 128.099 39.7163C128.099 38.386 129.457 37.7266 130.908 37.7266C131.831 37.7266 132.606 37.9455 133.222 38.5452L132.41 39.1165ZM37.7928 11.6453L37.7758 11.1735L41.417 11.1706V12.137L41.3774 22.7418C41.3774 27.281 41.3774 32.4285 48.4731 32.4285C55.4358 32.4285 55.4358 26.2464 55.4358 22.1591C55.4358 16.2272 55.433 13.7401 55.3537 11.6425L55.3339 11.1678H57.9538V11.6339C57.9372 12.6294 57.9422 13.8838 57.9477 15.2655C57.9507 16.0063 57.9538 16.7837 57.9538 17.5773C57.9708 19.9592 57.9877 22.648 57.9538 25.0754C57.8831 31.2035 54.1032 34.8616 47.8478 34.8616C40.9275 34.8616 37.7079 31.7719 37.7079 25.1351L37.7333 22.2927L37.756 20.0188L37.7928 15.9088L37.7956 15.6688L37.7956 15.6683L37.7956 15.6672C37.8143 14.0643 37.8305 12.6795 37.7928 11.6453ZM73.4127 10.7527V11.216C73.4523 13.9788 73.6956 32.5962 73.6447 33.9548L73.6221 34.4295H76.0298V33.9861V31.6923C76.0298 27.8381 76.0298 20.4281 76.058 17.5914L76.7229 18.2651L76.7993 18.3429C82.1511 23.7902 87.6831 29.4209 92.3798 34.7137L92.5156 34.8672H93.7775V34.4011C93.7528 33.2596 93.6657 19.7172 93.6294 14.0726L93.6293 14.0628L93.629 14.0084L93.628 13.8611C93.6194 12.516 93.6139 11.6695 93.6134 11.6282V11.1734H90.9369V11.6424C90.9369 11.6559 90.9411 11.8413 90.9485 12.1666L90.949 12.1882L90.9492 12.1996L90.9493 12.2019L90.9493 12.2025C90.999 14.3956 91.1832 22.5214 91.2199 27.659C87.6666 24.176 82.2162 18.5173 77.5005 13.6212L76.3664 12.4439L74.734 10.7527H73.4127ZM101.139 22.8071C101.139 29.0347 104.452 32.7553 110.006 32.7553C115.577 32.7553 118.904 29.0375 118.904 22.8071C118.904 16.5767 115.56 12.8589 110.006 12.8589C104.452 12.8589 101.139 16.5796 101.139 22.8071ZM97.2489 22.8071C97.2489 15.4853 102.254 10.7527 110.006 10.7527C117.775 10.7527 122.8 15.4796 122.8 22.8071C122.8 30.1347 117.758 34.8672 110.006 34.8672C102.254 34.8672 97.2489 30.129 97.2489 22.8071ZM140.53 11.1735C137.364 11.2786 134.264 11.3355 131.567 11.3355C128.871 11.3355 125.773 11.2786 122.607 11.1735H122.135V13.5553L122.607 13.5383C124.339 13.4758 127.275 13.4274 129.635 13.4217C129.692 15.4739 129.728 17.8501 129.728 20.0359V25.6097C129.728 28.1678 129.714 31.121 129.576 33.9804L129.553 34.4579H133.585L133.562 33.9804C133.423 31.1381 133.409 28.165 133.409 25.6097V20.0217C133.409 17.8359 133.443 15.4739 133.503 13.4075C135.862 13.4075 138.745 13.4615 140.53 13.5241L141 13.5383V11.1592L140.53 11.1735ZM63.7594 11.1735H67.5025V34.2846H63.7594V11.1735Z" fill="#AB0033"/>
</g>
<defs>
<clipPath id="clip0">
<rect width="141" height="45" fill="white"/>
</clipPath>
</defs>
</svg>