<svg width="150" height="97" viewBox="0 0 150 97" fill="none" xmlns="http://www.w3.org/2000/svg">
<path d="M79.3566 88.6916C57.7366 88.6916 39.4766 70.4616 39.4766 48.8916C39.4766 48.1016 40.1066 47.4616 40.8766 47.4616H70.5865C71.3565 47.4616 71.9866 48.1016 71.9866 48.8916C71.9866 49.6816 71.3565 50.3216 70.5865 50.3216H42.3066C43.0866 69.7216 59.7366 85.8316 79.3666 85.8316C103.327 85.8316 135.537 54.7916 141.467 48.8616C135.657 42.7116 103.617 10.3416 75.7565 12.3116C75.0065 12.3816 74.3165 11.7716 74.2665 10.9816C74.2165 10.1916 74.7966 9.51163 75.5666 9.46163C89.0366 8.49163 104.737 14.7016 122.237 27.8916C135.177 37.6416 144.357 47.8216 144.447 47.9216C144.947 48.4816 144.937 49.3416 144.417 49.8916C144.327 49.9916 134.997 59.6716 122.447 69.2216C105.467 82.1416 90.9766 88.6916 79.3566 88.6916Z" fill="black"/>
<path d="M70.4576 88.6918C57.8776 88.6918 43.0877 82.1418 26.4877 69.2118C14.2177 59.6518 5.45767 49.9518 5.36767 49.8518C4.88767 49.3118 4.87765 48.5018 5.33765 47.9518C5.42765 47.8518 14.1876 37.5918 26.4676 27.7518C43.0976 14.4318 57.9277 8.15184 70.5577 9.09184C90.5677 10.5818 111.268 25.8718 111.268 48.8918C111.268 70.4618 92.5776 88.6918 70.4576 88.6918ZM8.29767 48.8618C10.7777 51.5018 18.3376 59.2818 28.2176 66.9618C39.2776 75.5718 55.5776 85.8318 70.4576 85.8318C91.0676 85.8318 108.478 68.9118 108.478 48.8918C108.478 27.5418 89.0977 13.3418 70.3577 11.9418C44.3477 9.99184 13.7377 42.7718 8.30768 48.8618H8.29767Z" fill="black"/>
<path d="M85.1877 54.2716C82.1077 54.2716 79.5977 51.7116 79.5977 48.5616C79.5977 45.4116 82.1077 42.8516 85.1877 42.8516C88.2677 42.8516 90.7776 45.4116 90.7776 48.5616C90.7776 51.7116 88.2677 54.2716 85.1877 54.2716ZM85.1877 45.6916C83.6477 45.6916 82.3876 46.9716 82.3876 48.5516C82.3876 50.1316 83.6377 51.4116 85.1877 51.4116C86.7377 51.4116 87.9877 50.1316 87.9877 48.5516C87.9877 46.9716 86.7377 45.6916 85.1877 45.6916Z" fill="black"/>
</svg>
