<svg width="150" height="97" viewBox="0 0 150 97" fill="none" xmlns="http://www.w3.org/2000/svg">
<path d="M75.2615 93.4894C74.8715 93.4894 74.5115 93.3295 74.2415 93.0395L20.4015 34.6495C19.9815 34.1895 19.9015 33.5095 20.2115 32.9595L34.1415 8.15945C34.3915 7.71945 34.8515 7.43945 35.3515 7.43945H42.6715C43.4415 7.43945 44.0715 8.07945 44.0715 8.86945C44.0715 9.65945 43.4415 10.2995 42.6715 10.2995H36.1615L23.1515 33.4595L75.2615 89.9695L126.912 33.4995L112.432 10.2995H75.0515C74.2815 10.2995 73.6515 9.65945 73.6515 8.86945C73.6515 8.07945 74.2815 7.43945 75.0515 7.43945H113.192C113.672 7.43945 114.112 7.68945 114.372 8.09945L129.852 32.8995C130.192 33.4495 130.132 34.1695 129.692 34.6395L76.2815 93.0294C76.0215 93.3194 75.6515 93.4795 75.2615 93.4795V93.4894Z" fill="black"/>
<path d="M98.7023 67.8605C98.3423 67.8605 97.9823 67.7205 97.7123 67.4305L42.1323 9.88048C41.5923 9.32048 41.5923 8.41048 42.1423 7.86048C42.6923 7.31048 43.5723 7.31048 44.1223 7.87048L99.7023 65.4305C100.242 65.9905 100.242 66.9005 99.6923 67.4505C99.4223 67.7305 99.0623 67.8605 98.7123 67.8605H98.7023Z" fill="black"/>
<path d="M64.842 15.9298C61.762 15.9298 59.252 13.3698 59.252 10.2198C59.252 7.06976 61.762 4.50977 64.842 4.50977C67.922 4.50977 70.432 7.06976 70.432 10.2198C70.432 13.3698 67.922 15.9298 64.842 15.9298ZM64.842 7.35977C63.302 7.35977 62.042 8.63976 62.042 10.2198C62.042 11.7998 63.292 13.0798 64.842 13.0798C66.392 13.0798 67.642 11.7998 67.642 10.2198C67.642 8.63976 66.392 7.35977 64.842 7.35977Z" fill="black"/>
</svg>
