<svg width="150" height="97" viewBox="0 0 150 97" fill="none" xmlns="http://www.w3.org/2000/svg">
<path d="M62.7361 94.0004C43.586 94.0004 28 78.0154 28 58.3689C28 38.7223 43.586 22.7373 62.7361 22.7373C81.8862 22.7373 97.4722 38.7223 97.4722 58.3689C97.4722 78.0154 81.8862 94.0004 62.7361 94.0004ZM62.7361 25.2729C44.9514 25.2729 30.4736 40.1231 30.4736 58.3689C30.4736 76.6146 44.9425 91.4736 62.7361 91.4736C80.5297 91.4736 94.9987 76.6235 94.9987 58.3689C94.9987 40.1142 80.5297 25.2729 62.7361 25.2729Z" fill="black"/>
<path d="M94.269 72.6957C93.6839 72.6957 93.1608 72.2701 93.0544 71.6584C92.9303 70.9669 93.3736 70.3108 94.0474 70.1866C109.35 67.3141 120.467 53.6254 120.467 37.6315C120.467 19.3769 105.998 4.52672 88.2048 4.52672C70.4112 4.52672 55.9423 19.3769 55.9423 37.6315C55.9423 45.5132 58.6907 53.1467 63.6732 59.131C64.1165 59.663 64.0545 60.4609 63.5314 60.9131C63.0083 61.3652 62.2281 61.3031 61.7848 60.7712C56.4211 54.3346 53.4688 46.1161 53.4688 37.6315C53.4688 17.985 69.0548 2 88.2048 2C107.355 2 122.941 17.985 122.941 37.6315C122.941 54.8489 110.981 69.5926 94.4907 72.6868C94.4197 72.7045 94.34 72.7045 94.269 72.7045V72.6957Z" fill="black"/>
<path d="M68.0364 68.4759C65.8998 68.4759 64.1621 66.6939 64.1621 64.5041C64.1621 62.3142 65.8998 60.5322 68.0364 60.5322C70.1731 60.5322 71.9108 62.3142 71.9108 64.5041C71.9108 66.6939 70.1731 68.4759 68.0364 68.4759ZM68.0364 63.0678C67.2651 63.0678 66.6357 63.715 66.6357 64.5041C66.6357 65.2931 67.2651 65.9403 68.0364 65.9403C68.8078 65.9403 69.4372 65.2931 69.4372 64.5041C69.4372 63.715 68.8078 63.0678 68.0364 63.0678Z" fill="black"/>
</svg>
