<svg xmlns:xlink="http://www.w3.org/1999/xlink" xmlns="http://www.w3.org/2000/svg" width="222" height="45" viewBox="0 0 222 45" fill="none">
<path d="M83.1291 40.2729L83.0394 40.2859V36.9421H83.8234C85.0577 36.9901 85.1576 37.4519 85.2177 38.4132C85.1863 40.0781 84.2173 40.0984 83.1291 40.2729ZM84.4087 35.8017C83.3186 35.8017 82.2673 35.9356 81.2022 35.9356H80.6179L80.9433 36.4167C81.1726 36.7307 81.1976 37.3531 81.192 37.9339V42.7939C81.192 42.8253 81.1893 42.8706 81.1893 42.926C81.1976 43.4219 81.1606 44.0156 80.9461 44.3093L80.6095 44.7932H83.6783L83.3408 44.3093C83.0976 43.9722 83.0366 43.2926 83.0394 42.7939V40.8667C83.2973 41.0265 83.6422 41.1835 84.3551 41.1714C86.1303 41.1696 87.2518 39.9036 87.2537 38.2839C87.2564 37.5858 87.0262 36.944 86.5362 36.4906C86.0461 36.0418 85.324 35.8017 84.4087 35.8017ZM112.257 39.6866C112.152 39.6866 112.049 39.6847 111.947 39.6773V37.2487C111.947 37.149 111.952 37.0465 111.96 36.9403H112.31C113.553 37.0262 113.946 37.0068 113.989 38.101C113.954 39.1907 113.472 39.645 112.257 39.6866ZM116.133 43.0959L113.998 40.3127C114.917 39.8694 115.831 39.066 115.84 37.8397C115.837 36.6623 114.914 35.8017 113.416 35.8017C112.326 35.8017 111.237 35.9319 110.113 35.9319H109.528L109.854 36.4167C110.079 36.7307 110.105 37.3531 110.1 37.9339V42.7164C110.1 42.7893 110.098 42.8669 110.098 42.9472C110.098 43.4311 110.074 43.878 109.786 44.3148L109.469 44.7941H112.526L112.195 44.3111C111.967 43.9972 111.943 43.3711 111.947 42.7911V40.8289C112.311 40.9073 112.344 41.0579 112.855 41.707L114.517 43.9574C114.798 44.3675 115.194 44.7941 115.884 44.7941H117.862L117.236 44.2539C116.683 43.7645 116.523 43.5899 116.133 43.0959ZM137.966 39.6219C136.951 39.1187 136.158 38.7114 136.185 37.9754C136.203 37.1905 136.667 36.8969 137.543 36.8627C138.431 36.8784 138.614 36.9634 139.217 37.5331L139.746 38.0512V35.8017H139.435C138.765 35.8017 138.07 35.7186 137.335 35.7186C135.8 35.7223 134.281 36.5524 134.278 38.2691C134.287 39.6746 135.442 40.2803 136.4 40.7707C137.408 41.2869 138.202 41.7089 138.182 42.5566C138.169 43.4163 137.607 43.8402 136.681 43.8642C135.369 43.8512 134.92 43.2196 134.498 42.6785L133.94 41.9462V44.4478L134.135 44.5244C134.819 44.7913 135.867 44.9963 136.595 45C138.22 44.9963 140.066 44.0406 140.086 42.1881C140.082 40.7476 138.93 40.1086 137.966 39.6219ZM126.693 42.7911V37.9339C126.687 37.3531 126.713 36.7307 126.941 36.4167L127.264 35.9356H124.268L124.596 36.4167C124.823 36.7307 124.848 37.3531 124.843 37.9339V42.7911C124.848 43.3711 124.823 43.9972 124.596 44.3111L124.266 44.7941H127.267L126.941 44.3111C126.713 43.9972 126.687 43.3711 126.693 42.7911ZM96.7908 40.0421L97.7358 37.8489L98.4921 40.0421H96.7908ZM99.0311 36.1424L98.9572 35.9356H96.8306L96.8029 36.5811C96.8565 37.402 93.9949 43.1319 93.282 43.9233L92.9815 44.2899L92.5645 44.7932H95.2884L95.232 44.4376C95.2079 44.2807 95.1996 44.1394 95.1968 43.9935C95.1848 43.4329 95.7183 42.2463 96.2749 41.1714H98.9525L100.437 44.7932H102.649L102.115 43.8586C100.774 41.5048 99.903 38.716 99.0311 36.1424ZM98.6086 2.26722C98.9035 2.58488 98.9757 2.81113 98.9849 3.22944C99.0163 4.00882 98.2101 5.85291 97.3308 7.26669L94.6634 11.7638C94.5986 11.8746 94.5376 11.9827 94.4821 12.0852C93.6935 9.34811 91.9136 5.15572 90.3224 2.74649C89.7297 1.67346 88.8347 0.903313 87.311 1.00397H81.9326L83.4582 2.3134C84.9246 3.55264 86.9245 6.42175 88.4538 9.40167C90.0191 12.4425 91.1175 14.8361 91.1111 17.1973V20.5734C91.1268 22.2494 91.0593 24.0695 90.3788 25.0215L89.5873 26.1851H97.6572L96.863 25.0215C96.1815 24.0695 96.1159 22.2494 96.1325 20.5734V19.0164C96.1529 14.2866 97.4556 12.7842 100.229 8.73772L105.487 1.00397H97.3798L98.6086 2.26722ZM192.446 20.4644V6.58612C192.441 4.92486 192.502 3.37811 193.237 2.11947L193.885 1.00489H186.003L186.651 2.11947C187.39 3.38088 187.453 4.92486 187.449 6.58612V11.1165H177.407V6.58612C177.402 4.92486 177.466 3.37811 178.201 2.11947L178.848 1.00489H170.965L171.614 2.11947C172.352 3.38088 172.417 4.92486 172.411 6.58612V20.4644C172.417 22.1183 172.352 23.6641 171.614 24.9264L170.964 26.0429H178.849L178.201 24.9264C177.466 23.6659 177.402 22.1183 177.407 20.4644V14.0835H187.449V20.4644C187.453 22.1183 187.39 23.6641 186.651 24.9264L186.001 26.0429H193.887L193.237 24.9264C192.502 23.6659 192.441 22.1183 192.446 20.4644ZM154.086 23.521C151.222 23.5034 149.528 22.1293 148.372 20.0839C147.24 18.0404 146.8 15.3181 146.805 12.9726C146.86 7.81059 149.026 3.52309 154.086 3.52309C156.95 3.54156 158.644 4.91193 159.8 6.95826C160.932 9.00274 161.368 11.7259 161.366 14.0733C161.309 19.2288 159.143 23.521 154.086 23.521ZM154.393 0.414817C150.164 0.408353 146.829 1.9588 144.605 4.45853C142.379 6.95272 141.263 10.3519 141.263 14.005C141.263 17.418 142.194 20.5798 144.267 22.9041C146.335 25.2312 149.525 26.6375 153.774 26.6329H153.794C158.013 26.6329 161.342 25.0871 163.561 22.5929C165.79 20.095 166.906 16.6977 166.906 13.0409C166.906 9.62514 165.974 6.46423 163.899 4.14087C161.831 1.81474 158.642 0.408353 154.393 0.414817ZM28.2396 20.4902C27.9558 18.0173 27.8948 15.4797 27.8948 12.9356C27.8948 10.9577 27.9336 8.97966 27.9336 7.02475C27.9336 6.62398 27.928 6.2306 27.928 5.8446C27.9197 4.36988 28.027 3.01243 28.5956 2.14902L29.3251 1.00489H23.9726C23.281 0.986422 22.6717 1.34379 22.3527 1.77134C22.0199 2.19243 21.8581 2.63475 21.688 3.00597L14.9856 16.8953C14.9773 16.8685 14.968 16.8436 14.9578 16.8168L9.1551 2.04006C8.73811 1.00858 7.72753 1.01597 7.24397 1.00489H0.766263L2.0043 2.11209C2.70791 2.60982 2.55166 2.76218 2.62008 3.82505V13.112C2.66446 17.0597 2.36212 23.0214 1.15645 24.5183L0.0783691 26.1851H7.49916L6.67626 25.0151C6.02535 24.1775 5.92087 21.7914 5.94861 18.9103L5.9856 7.90386L14.0684 26.2035L22.9149 7.84014V18.7607C22.926 20.8273 22.8955 23.5394 22.2603 25.1785L21.8794 26.1851H30.0084L29.3584 25.0649C28.5956 23.7703 28.4292 22.1829 28.2396 20.4902ZM137.817 20.7571V18.6794L136.536 20.0193C135.539 21.0554 133.474 22.3436 130.334 22.3436C124.36 22.2946 121.644 18.3331 121.574 12.7842C121.644 7.71732 123.734 3.55264 129.362 3.52217C133.15 3.57942 134.046 4.97473 134.99 6.48362L135.204 6.85207H136.467L136.49 6.13364L136.673 0.707545H135.905C133.36 0.710316 131.733 0.417587 129.4 0.414817C125.289 0.41297 121.911 1.75102 119.589 4.13256C117.275 6.50301 116.04 9.85877 116.033 13.7695C116.027 13.8545 116.03 13.896 116.03 13.9043C116.03 17.4208 117.173 20.6038 119.284 22.9152C121.39 25.2256 124.465 26.6311 128.172 26.6311H128.19C134.552 26.5821 137.725 23.1026 137.817 20.7571ZM68.5981 11.8072C68.2551 11.8072 67.9149 11.7961 67.5783 11.7712V4.64322C67.5783 4.30801 67.5894 3.95157 67.6107 3.60066H68.7544C70.4547 3.63113 71.788 3.79366 72.5425 4.25445C73.2729 4.70416 73.7047 5.36349 73.7306 7.09678C73.6418 10.2919 72.1421 11.7102 68.5981 11.8072ZM82.8036 24.8812C81.2114 23.4812 80.739 22.9678 79.61 21.5356L79.611 21.5337L73.3783 13.3807C76.0476 12.1433 78.7206 9.86338 78.7493 6.35157C78.7539 4.73094 78.1473 3.24237 76.9509 2.21459C75.761 1.18404 74.0514 0.623513 71.9285 0.626283C68.8108 0.626283 65.6764 1.00397 62.4459 1.00397H61.0387L61.8301 2.16657C62.5152 3.12232 62.5809 4.94056 62.5652 6.6129V20.9335C62.5652 22.363 62.4967 23.7195 61.6286 25.0289L60.8556 26.1851H69.1085L68.3115 25.0197C67.6282 24.0676 67.5617 22.2494 67.5783 20.5743V14.7345C68.1063 14.8351 68.3975 14.9829 68.6906 15.2202C69.1168 15.56 69.5976 16.2462 70.427 17.3755L75.2081 23.8386C76.0198 25.0151 77.0887 26.1851 79.0257 26.1851H84.2903L82.8036 24.8812ZM205.937 11.7407C205.596 11.7407 205.26 11.7315 204.925 11.7075V4.62475C204.925 4.29416 204.941 3.94325 204.959 3.59697H206.094C207.786 3.62375 209.11 3.7835 209.858 4.2406C210.581 4.69031 211.01 5.34225 211.035 7.06353C210.95 10.2374 209.463 11.6438 205.937 11.7407ZM220.065 24.7427C218.474 23.3335 218.004 22.8358 216.881 21.4072L210.696 13.3198C213.349 12.0833 216.003 9.81536 216.03 6.32386C216.036 4.70878 215.431 3.22944 214.245 2.20812C213.058 1.18588 211.358 0.632747 209.247 0.635517C206.149 0.635517 203.037 1.00489 199.819 1.00489H198.407L199.202 2.16749C199.884 3.11771 199.948 4.91932 199.933 6.5852V20.8236C199.933 22.2429 199.866 23.5948 199.005 24.8867L198.235 26.0429H206.454L205.656 24.8793C204.975 23.9291 204.91 22.1238 204.925 20.4625V14.6634C205.444 14.7631 205.735 14.9109 206.028 15.1463C206.454 15.4834 206.932 16.1649 207.756 17.2869L212.502 23.7103C213.313 24.8756 214.37 26.0429 216.301 26.0429H221.543L220.065 24.7427ZM42.3831 12.8082L45.3261 5.9508L47.6912 12.8082H42.3831ZM48.8951 1.50909L48.7194 1.00397H42.8556L42.7835 2.71509C42.8362 3.85276 40.8307 8.76912 38.5424 13.3881C36.2725 18.0487 33.6504 22.7443 32.6499 23.9236L30.7776 26.1814H38.1439L37.9932 25.3143C37.9174 24.8719 37.8822 24.4702 37.8822 24.0335C37.8499 22.338 39.4254 18.8807 41.036 15.7918H48.9034L53.1731 26.1814H59.1959L57.7702 23.6964C53.9091 16.9286 51.4035 8.90671 48.8951 1.50909Z" fill="#008147"/>
</svg>